# AST/ASF file generated using VICON BodyLanguage
# -----------------------------------------------
:version 1.10
:name VICON
:units
  mass 1.0
  length 0.45
  angle deg
:documentation
   .ast/.asf automatically generated from VICON data using
   VICON BodyBuilder and BodyLanguage model FoxedUp or BRILLIANT.MOD
:root
   order TX TY TZ RX RY RZ
   axis XYZ
   position 0 0 0  
   orientation 0 0 0 
:bonedata
  begin
     id 1 
     name lhipjoint
     direction 0.661853 -0.702389 0.261917 
     length 2.64193 
     axis 0 0 0  XYZ
  end
  begin
     id 2 
     name lfemur
     direction 0.34202 -0.939693 0  
     length 7.01722  
     axis 0 0 20  XYZ
    dof rx ry rz
    limits (-160.0 20.0)
           (-70.0 70.0)
           (-60.0 70.0)
  end
  begin
     id 3 
     name ltibia
     direction 0.34202 -0.939693 0   
     length 8.25008   
     axis 0 0 20   XYZ
    dof rx
    limits (-10.0 170.0)
  end
  begin
     id 4 
     name lfoot
     direction 0.0709916 -0.195048 0.978221   
     length 2.31941   
     axis -90 7.62852e-016 20   XYZ
    dof rx rz
    limits (-45.0 90.0)
           (-70.0 20.0)
  end
  begin
     id 5 
     name ltoes
     direction 1.53586e-011 -4.22017e-011 1   
     length 1.16486   
     axis -90 7.62852e-016 20   XYZ
    dof rx
    limits (-90.0 20.0)
  end
  begin
     id 6 
     name rhipjoint
     direction -0.638185 -0.721362 0.268992   
     length 2.57244  
     axis 0 0 0  XYZ 
  end
  begin
     id 7 
     name rfemur
     direction -0.34202 -0.939693 0   
     length 7.07017   
     axis 0 0 -20   XYZ
    dof rx ry rz
    limits (-160.0 20.0)
           (-70.0 70.0)
           (-70.0 60.0)
  end
  begin
     id 8 
     name rtibia
     direction -0.34202 -0.939693 0   
     length 8.20386   
     axis 0 0 -20   XYZ
    dof rx
    limits (-10.0 170.0)
 end
 begin
     id 9 
     name rfoot
     direction -0.0822429 -0.225961 0.970658   
     length 2.32215  
     axis -90 -7.62852e-016 -20   XYZ
    dof rx rz
    limits (-45.0 90.0)
           (-20.0 70.0)
  end
  begin
     id 10 
     name rtoes
     direction -1.53597e-011 -4.21689e-011 1   
     length 1.16333   
     axis -90 -7.62852e-016 -20   XYZ
    dof rx
    limits (-90.0 20.0)
  end
  begin
     id 11 
     name lowerback
     direction -0.0131557 0.998589 -0.0514484   
     length 2.14993   
     axis 0 0 0   XYZ
    dof rx ry rz
    limits (-20.0 45.0)
           (-30.0 30.0)
           (-30.0 30.0)
  end
  begin
     id 12 
     name upperback
     direction -0.000776481 0.999993 0.00352685   
     length 2.15301   
     axis 0 0 0   XYZ
    dof rx ry rz
    limits (-20.0 45.0)
           (-30.0 30.0)
           (-30.0 30.0)
  end
  begin
     id 13 
     name thorax
     direction 0.00438186 0.999609 0.0276143   
     length 2.15424   
     axis 0 0 0   XYZ
    dof rx ry rz
    limits (-20.0 45.0)
           (-30.0 30.0)
           (-30.0 30.0)
  end
  begin
     id 14 
     name lowerneck
     direction -0.0488006 0.998094 0.0377807   
     length 1.90481   
     axis 0 0 0   XYZ
    dof rx ry rz
    limits (-20.0 45.0)
           (-30.0 30.0)
           (-30.0 30.0)
  end
  begin
     id 15 
     name upperneck
     direction 0.0443769 0.990702 -0.12861   
     length 1.91305   
     axis 0 0 0   XYZ
    dof rx ry rz
    limits (-20.0 45.0)
           (-30.0 30.0)
           (-30.0 30.0)
  end
  begin
     id 16
     name head
     direction 0.0165599 0.998647 -0.0492982  
     length 1.92369  
     axis 0 0 0   XYZ
    dof rx ry rz
    limits (-20.0 45.0)
           (-30.0 30.0)
           (-30.0 30.0)
  end
  begin
     id 17 
     name lclavicle
     direction 0.911936 0.410197 -0.0105506  
     length 3.52622  
     axis 0 0 0   XYZ
    dof ry rz
    limits (-20.0 10.0)
           (0.0 20.0)
  end
  begin
     id 18 
     name lhumerus
     direction 1 -4.48974e-011 -2.48591e-028   
     length 5.47651   
     axis 180 -30 -90   XYZ
    dof rx ry rz
    limits (-60.0 90.0)
           (-90.0 90.0)
           (-90.0 90.0)
  end
  begin
     id 19
     name lradius
     direction 1 -4.48938e-011 -4.40099e-027   
     length 3.09058   
     axis 180 -30 -90   XYZ
    dof rx
    limits (-10.0 170.0)
  end
  begin
     id 20
     name lwrist
     direction 1 -4.49042e-011 -2.99852e-027   
     length 1.54529   
     axis 1.95339e-015 90 90   XYZ
    dof ry
    limits (-180.0 0.0)
 end
  begin
     id 21 
     name lhand
     direction 1 -4.48815e-011 -5.98193e-027   
     length 0.771611   
     axis 3.82337e-015 90 90   XYZ
    dof rx rz
    limits (-90.0 90.0)
           (-45.0 45.0)
  end
  begin
     id 22 
     name lfingers
     direction 1 -4.49034e-011 -1.1993e-026   
     length 0.622093   
     axis 7.64668e-015 90 90   XYZ
    dof rx
    limits (0.0 90.0)
  end
  begin
     id 23
     name lthumb
     direction 0.707107 -6.34867e-011 0.707107   
     length 0.893204   
     axis -90 45 -1.62303e-014   XYZ
    dof rx rz
    limits (-45.0 45.0)
           (-45.0 45.0)
  end
  begin
     id 24 
     name rclavicle
     direction -0.93442 0.355634 -0.0195692   
     length 3.62463  
     axis 0 0 0   XYZ 
    dof ry rz
    limits (-10.0 20.0)
           (-20.0 0.0)
  end
  begin
     id 25 
     name rhumerus
     direction -1 -4.48957e-011 -1.19147e-027  
     length 5.14182   
     axis 180 30 90   XYZ
    dof rx ry rz
    limits (-90.0 60.0)
           (-90.0 90.0)
           (-90.0 90.0)
  end
  begin
     id 26 
     name rradius
     direction -1 -4.48952e-011 -3.81062e-027   
     length 3.35565   
     axis 180 30 90   XYZ
    dof rx
    limits (-10.0 170.0)
  end
  begin
     id 27 
     name rwrist
     direction -1 -4.48973e-011 -2.99621e-027   
     length 1.67782   
     axis 1.95339e-015 -90 -90   XYZ
    dof ry
    limits (-180.0 0.0)
  end
  begin
     id 28
     name rhand
     direction -1 -4.48895e-011 -5.98727e-027   
     length 0.801042   
     axis 3.82337e-015 -90 -90   XYZ
    dof rx rz
    limits (-90.0 90.0)
           (-45.0 45.0)
  end
  begin
     id 29
     name rfingers
     direction -1 -4.49065e-011 -1.19972e-026   
     length 0.645821   
     axis 7.64668e-015 -90 -90   XYZ
    dof rx
    limits (0.0 90.0)
  end
  begin
     id 30
     name rthumb
     direction -0.707107 -6.34957e-011 0.707107   
     length 0.927273   
     axis -90 -45 1.62303e-014   XYZ
    dof rx rz
    limits (-45.0 45.0)
           (-45.0 45.0)
  end
:hierarchy
  begin
    root lhipjoint rhipjoint lowerback
    lhipjoint lfemur
    lfemur ltibia
    ltibia lfoot
    lfoot ltoes
    rhipjoint rfemur
    rfemur rtibia
    rtibia rfoot
    rfoot rtoes
    lowerback upperback
    upperback thorax
    thorax lowerneck lclavicle rclavicle
    lowerneck upperneck
    upperneck head
    lclavicle lhumerus
    lhumerus lradius
    lradius lwrist
    lwrist lhand lthumb
    lhand lfingers
    rclavicle rhumerus
    rhumerus rradius
    rradius rwrist
    rwrist rhand rthumb
    rhand rfingers
  end

#!OML:ASF E:\Style4\Style4.ASF
:FULLY-SPECIFIED
:DEGREES
278
root 0.601298 17.3212 -2.69614 1.76654 -7.85085 6.55669
lowerback 13.0202 3.61545 -9.31099
upperback 10.88 3.93074 -2.66695
thorax 3.92073 1.50266 1.99499
lowerneck 9.26005 -1.53244 -10.467
upperneck 7.46718 -3.18834 7.84009
head 1.00918 -1.82206 4.12759
rclavicle -4.57205e-015 5.96354e-015
rhumerus 43.5793 70.518 -45.246
rradius 111.409
rwrist -68.6958
rhand 29.0754 -6.36359
rfingers 7.12502
rthumb 52.8738 -25.9355
lclavicle -4.57205e-015 5.96354e-015
lhumerus 62.0066 30.2935 38.3541
lradius 105.905
lwrist 81.1476
lhand 18.814 29.5409
lfingers 7.12502
lthumb 43.4287 53.6335
rfemur -29.5201 3.54299 10.5601
rtibia 46.6973
rfoot -18.9093 -8.55453
rtoes -10.6145
lfemur -23.0861 4.23295 -27.65
ltibia 39.7431
lfoot -19.8714 8.73858
ltoes -13.6727
279
root 0.563523 17.3316 -2.68741 1.7704 -7.60052 6.54927
lowerback 12.8117 3.61012 -9.61008
upperback 10.9116 3.92748 -2.58531
thorax 4.05202 1.47442 2.25658
lowerneck 9.42796 -1.49101 -10.4277
upperneck 7.5694 -3.1438 7.71296
head 1.00771 -1.80299 4.08375
rclavicle 9.64106e-015 -2.28602e-014
rhumerus 44.1867 70.548 -43.824
rradius 111.813
rwrist -68.661
rhand 28.5753 -6.16598
rfingers 7.12502
rthumb 52.4217 -26.0178
lclavicle 9.64106e-015 -2.28602e-014
lhumerus 61.0024 30.1062 38.2241
lradius 106.592
lwrist 80.6904
lhand 18.0133 29.2076
lfingers 7.12502
lthumb 42.6801 53.5657
rfemur -29.3192 3.45541 10.6954
rtibia 46.5465
rfoot -18.984 -8.59409
rtoes -10.1881
lfemur -22.8832 4.07803 -27.5027
ltibia 39.4632
lfoot -19.6924 8.62276
ltoes -13.4935
280
root 0.524999 17.3432 -2.67838 1.79813 -7.34864 6.6009
lowerback 12.6501 3.6029 -9.90842
upperback 10.9225 3.91594 -2.54616
thorax 4.13996 1.44571 2.47089
lowerneck 9.60405 -1.45302 -10.5097
upperneck 7.62836 -3.11924 7.72749
head 0.997045 -1.79643 4.10389
rclavicle -7.65321e-015 3.67752e-014
rhumerus 44.8494 70.5447 -42.2913
rradius 112.28
rwrist -68.9003
rhand 28.5344 -6.23806
rfingers 7.12502
rthumb 52.3846 -26.1124
lclavicle -7.65321e-015 3.67752e-014
lhumerus 59.9561 29.8981 38.0033
lradius 107.25
lwrist 80.4255
lhand 17.0184 29.01
lfingers 7.12502
lthumb 41.7481 53.6839
rfemur -29.1542 3.31164 10.776
rtibia 46.3929
rfoot -19.0145 -8.68732
rtoes -10.0606
lfemur -22.7052 3.88521 -27.4187
ltibia 39.1527
lfoot -19.558 8.54513
ltoes -13.3249
281
root 0.486297 17.3576 -2.66823 1.84377 -7.10847 6.68781
lowerback 12.4989 3.60428 -10.2566
upperback 10.914 3.90955 -2.51335
thorax 4.19986 1.41826 2.70411
lowerneck 9.76675 -1.42938 -10.636
upperneck 7.65101 -3.11761 7.79609
head 0.980933 -1.80178 4.1481
rclavicle -5.76476e-015 -2.18663e-015
rhumerus 45.4115 70.6095 -41.0178
rradius 112.54
rwrist -69.3545
rhand 28.543 -6.64084
rfingers 7.12502
rthumb 52.3923 -26.5105
lclavicle -5.76476e-015 -2.18663e-015
lhumerus 59.0106 29.6409 37.8974
lradius 107.863
lwrist 80.1004
lhand 16.1109 29.2319
lfingers 7.12502
lthumb 40.8963 54.1811
rfemur -29.0027 3.14047 10.8179
rtibia 46.2162
rfoot -19.049 -8.76389
rtoes -10.1659
lfemur -22.5392 3.63096 -27.3729
ltibia 38.8345
lfoot -19.4252 8.57
ltoes -13.2408
282
root 0.449016 17.3727 -2.65783 1.84388 -6.8563 6.68554
lowerback 12.427 3.57726 -10.4542
upperback 10.9237 3.86937 -2.46689
thorax 4.24545 1.38252 2.86939
lowerneck 9.8266 -1.3977 -10.8469
upperneck 7.69755 -3.10429 7.86157
head 0.988344 -1.80189 4.20355
rclavicle -5.1684e-015 8.15017e-015
rhumerus 45.975 70.7743 -39.9793
rradius 112.556
rwrist -69.718
rhand 28.3589 -7.08802
rfingers 7.12502
rthumb 52.2257 -27.0587
lclavicle -5.1684e-015 8.15017e-015
lhumerus 58.0327 29.4286 37.7713
lradius 108.489
lwrist 79.7857
lhand 15.1826 29.5825
lfingers 7.12502
lthumb 40.0235 54.8014
rfemur -28.7394 3.04283 10.9465
rtibia 45.9986
rfoot -19.0986 -8.85337
rtoes -10.0118
lfemur -22.3029 3.37611 -27.2343
ltibia 38.5335
lfoot -19.3674 8.6149
ltoes -13.2588
283
root 0.411549 17.3857 -2.64736 1.84894 -6.59389 6.47951
lowerback 12.372 3.52768 -10.3655
upperback 10.9845 3.82437 -2.37673
thorax 4.34443 1.35624 2.92499
lowerneck 9.65162 -1.37436 -11.137
upperneck 7.85122 -3.09036 7.95194
head 1.0655 -1.80038 4.27626
rclavicle 3.39922e-014 -1.13307e-014
rhumerus 46.9778 70.7882 -38.3893
rradius 112.738
rwrist -70.1104
rhand 28.0432 -7.28826
rfingers 7.12502
rthumb 51.9393 -27.4299
lclavicle 3.39922e-014 -1.13307e-014
lhumerus 57.0499 29.2783 37.6227
lradius 109.115
lwrist 79.4942
lhand 14.4221 29.5074
lfingers 7.12502
lthumb 39.3074 54.9387
rfemur -28.4303 3.00015 11.3061
rtibia 45.747
rfoot -19.0869 -8.9983
rtoes -9.65049
lfemur -22.0738 3.19717 -26.8744
ltibia 38.2592
lfoot -19.2607 8.62578
ltoes -13.7251
284
root 0.374566 17.3976 -2.6381 1.894 -6.30305 6.32803
lowerback 12.3075 3.4885 -10.335
upperback 11.0237 3.78824 -2.30558
thorax 4.42329 1.33323 2.99135
lowerneck 9.4126 -1.40132 -11.2873
upperneck 8.10165 -3.12228 7.94915
head 1.18286 -1.81801 4.29674
rclavicle 1.41137e-014 1.53064e-014
rhumerus 48.0804 70.6896 -36.5466
rradius 113.098
rwrist -70.48
rhand 27.4903 -7.1303
rfingers 7.12502
rthumb 51.4371 -27.5645
lclavicle 1.41137e-014 1.53064e-014
lhumerus 56.0679 29.1201 37.3964
lradius 109.733
lwrist 79.3527
lhand 13.7584 29.0677
lfingers 7.12502
lthumb 38.6817 54.6782
rfemur -28.1851 2.87376 11.6066
rtibia 45.4799
rfoot -18.986 -9.19304
rtoes -9.79104
lfemur -21.9054 2.94643 -26.5797
ltibia 37.9902
lfoot -19.0844 8.5981
ltoes -13.9934
285
root 0.33605 17.4098 -2.62874 1.95794 -6.02743 6.32522
lowerback 12.3454 3.41804 -10.3625
upperback 10.9993 3.6894 -2.35651
thorax 4.39089 1.28706 2.96041
lowerneck 9.2403 -1.39137 -11.4667
upperneck 8.27722 -3.11456 8.00903
head 1.26463 -1.81742 4.34221
rclavicle -1.03368e-014 7.7526e-015
rhumerus 49.2184 70.6357 -34.9064
rradius 113.403
rwrist -70.8679
rhand 27.016 -7.11483
rfingers 7.12502
rthumb 51.0053 -27.7933
lclavicle -1.03368e-014 7.7526e-015
lhumerus 55.0253 29.0229 37.0096
lradius 110.395
lwrist 79.3268
lhand 13.1219 28.8893
lfingers 7.12502
lthumb 38.081 54.6664
rfemur -27.9902 2.71719 11.7464
rtibia 45.2203
rfoot -18.901 -9.35722
rtoes -10.1714
lfemur -21.7743 2.64158 -26.4452
ltibia 37.7213
lfoot -18.9105 8.63531
ltoes -13.9274
286
root 0.299012 17.4242 -2.61789 1.99444 -5.76982 6.32195
lowerback 12.5015 3.31972 -10.2549
upperback 10.9543 3.54824 -2.47393
thorax 4.2846 1.23462 2.78377
lowerneck 9.10724 -1.37696 -11.719
upperneck 8.41425 -3.11118 8.11217
head 1.33086 -1.82129 4.41377
rclavicle -4.87022e-014 -5.96354e-015
rhumerus 50.4486 70.5938 -33.3601
rradius 113.618
rwrist -71.216
rhand 26.6614 -7.16836
rfingers 7.12502
rthumb 50.682 -28.0255
lclavicle -4.87022e-014 -5.96354e-015
lhumerus 54.0397 28.9579 36.5967
lradius 111.065
lwrist 79.4234
lhand 12.5684 29.0316
lfingers 7.12502
lthumb 37.5581 54.9497
rfemur -27.761 2.56064 11.8798
rtibia 44.9733
rfoot -18.8927 -9.48323
rtoes -10.2587
lfemur -21.5997 2.35152 -26.313
ltibia 37.4385
lfoot -18.8154 8.71349
ltoes -14.2702
287
root 0.262487 17.4365 -2.60984 2.03809 -5.51131 6.28837
lowerback 12.4642 3.29981 -10.2407
upperback 10.9589 3.53099 -2.47729
thorax 4.31252 1.22643 2.77613
lowerneck 9.15525 -1.4373 -11.7603
upperneck 8.43066 -3.19554 8.03937
head 1.33732 -1.86537 4.39902
rclavicle -7.15625e-015 5.00937e-014
rhumerus 51.4374 70.4917 -31.7991
rradius 113.851
rwrist -71.3592
rhand 26.4461 -6.97334
rfingers 7.12502
rthumb 50.4854 -27.9374
lclavicle -7.15625e-015 5.00937e-014
lhumerus 53.1792 28.8418 36.4119
lradius 111.723
lwrist 79.4619
lhand 12.2099 29.2111
lfingers 7.12502
lthumb 37.2192 55.2186
rfemur -27.5415 2.45335 12.0416
rtibia 44.6976
rfoot -18.8893 -9.59969
rtoes -10.1543
lfemur -21.4595 2.10908 -26.1509
ltibia 37.1587
lfoot -18.6726 8.76917
ltoes -14.9757
288
root 0.227038 17.4463 -2.60341 2.11662 -5.24624 6.1997
lowerback 12.2991 3.32899 -10.2806
upperback 10.9886 3.59159 -2.38717
thorax 4.42051 1.24579 2.89537
lowerneck 9.25994 -1.53747 -11.6889
upperneck 8.38804 -3.32461 7.91259
head 1.31939 -1.92883 4.35012
rclavicle 1.03368e-014 -2.98177e-014
rhumerus 52.4074 70.3287 -30.211
rradius 114.015
rwrist -71.3165
rhand 26.2851 -6.73193
rfingers 7.12502
rthumb 50.3383 -27.7752
lclavicle 1.03368e-014 -2.98177e-014
lhumerus 52.3596 28.7349 36.3669
lradius 112.376
lwrist 79.5897
lhand 11.868 29.3194
lfingers 7.12502
lthumb 36.8959 55.4107
rfemur -27.3546 2.39148 12.2591
rtibia 44.3919
rfoot -18.8189 -9.76417
rtoes -10.1027
lfemur -21.3558 1.91558 -25.9373
ltibia 36.8692
lfoot -18.4557 8.80943
ltoes -15.4798
